<svg xmlns="http://www.w3.org/2000/svg" width="19" height="14" viewBox="0 0 19 14">
  <g id="sort-ascending" transform="translate(-3 -6)">
    <path id="Path_42259" data-name="Path 42259" d="M3,17a1,1,0,0,1,1-1h6a1,1,0,0,1,0,2H4A1,1,0,0,1,3,17Z" fill="#fe9933" fill-rule="evenodd"/>
    <path id="Path_42260" data-name="Path 42260" d="M3,12a1,1,0,0,1,1-1h9a1,1,0,0,1,0,2H4A1,1,0,0,1,3,12Z" fill="#fe9933" fill-rule="evenodd"/>
    <path id="Path_42261" data-name="Path 42261" d="M18,10a1,1,0,0,1,1,1v8a1,1,0,0,1-2,0V11A1,1,0,0,1,18,10Z" fill="#fe9933" fill-rule="evenodd"/>
    <path id="Path_42262" data-name="Path 42262" d="M14.293,15.293a1,1,0,0,1,1.414,0L18,17.586l2.293-2.293a1,1,0,1,1,1.414,1.414l-3,3a1,1,0,0,1-1.414,0l-3-3A1,1,0,0,1,14.293,15.293Z" fill="#fe9933" fill-rule="evenodd"/>
    <path id="Path_42263" data-name="Path 42263" d="M3,7A1,1,0,0,1,4,6H16a1,1,0,0,1,0,2H4A1,1,0,0,1,3,7Z" fill="#fe9933" fill-rule="evenodd"/>
  </g>
</svg>
