<svg xmlns="http://www.w3.org/2000/svg" width="19" height="14" viewBox="0 0 19 14">
  <g id="sort-descending" transform="translate(-3 -4)">
    <g id="Group_47475" data-name="Group 47475">
      <path id="Path_42264" data-name="Path 42264" d="M16,18H4a1,1,0,0,1,0-2H16a1,1,0,0,1,0,2Z" fill="#fe9933"/>
    </g>
    <g id="Group_47476" data-name="Group 47476">
      <path id="Path_42265" data-name="Path 42265" d="M13,13H4a1,1,0,0,1,0-2h9a1,1,0,0,1,0,2Z" fill="#fe9933"/>
    </g>
    <g id="Group_47477" data-name="Group 47477">
      <path id="Path_42266" data-name="Path 42266" d="M10,8H4A.945.945,0,0,1,3,7,.945.945,0,0,1,4,6h6a.945.945,0,0,1,1,1A.945.945,0,0,1,10,8Z" fill="#fe9933"/>
    </g>
    <g id="Group_47478" data-name="Group 47478">
      <path id="Path_42267" data-name="Path 42267" d="M18,14a.945.945,0,0,1-1-1V5a1,1,0,0,1,2,0v8A.945.945,0,0,1,18,14Z" fill="#fe9933"/>
    </g>
    <g id="Group_47479" data-name="Group 47479">
      <path id="Path_42268" data-name="Path 42268" d="M21,9a.908.908,0,0,1-.7-.3L18,6.4,15.7,8.7a.99.99,0,0,1-1.4-1.4l3-3a.967.967,0,0,1,1.4,0l3,3a.967.967,0,0,1,0,1.4A.908.908,0,0,1,21,9Z" fill="#fe9933"/>
    </g>
  </g>
</svg>
